# xmcd
#
# Track frame offsets: 
#        150
#        16656
#        28756
#        41763
#        105515
#
# Disc length: 1781 seconds
#
# Revision: 0
# Processed by: cddbd v1.4PL0 Copyright (c) Steve Scherf et al.
# Submitted via: ExactAudioCopy v0.90b4
#
DISCID=3106f305
DTITLE=Shelly Laine - Skipping Stones (Sampler)
DYEAR=2001
DGENRE=Country
TTITLE0=Skipping Stones
TTITLE1=Ain't it Just Like Love
TTITLE2=No Easy Way to Say Goodbye
TTITLE3=Interview with Shelly Laine
TTITLE4=Data
EXTD=
EXTT0=
EXTT1=
EXTT2=
EXTT3=
EXTT4=
PLAYORDER=
